<?xml version="1.0" standalone="no"?>
<!DOCTYPE svg PUBLIC "-//W3C//DTD SVG 20010904//EN"
 "http://www.w3.org/TR/2001/REC-SVG-20010904/DTD/svg10.dtd">
<svg version="1.0" xmlns="http://www.w3.org/2000/svg"
 width="3000.000000pt" height="3000.000000pt" viewBox="0 0 3000.000000 3000.000000"
 preserveAspectRatio="xMidYMid meet">
<metadata>
Created by potrace 1.11, written by Peter Selinger 2001-2013
</metadata>
<g transform="translate(0.000000,3000.000000) scale(0.100000,-0.100000)"
fill="#000000" stroke="none">
<path d="M18549 20376 c-2 -2 -44 -7 -94 -10 -84 -7 -207 -21 -265 -32 -14 -2
-41 -7 -60 -10 -19 -3 -73 -15 -120 -26 -47 -11 -92 -21 -100 -23 -99 -21
-376 -127 -500 -192 -290 -152 -528 -377 -659 -623 -56 -106 -119 -293 -147
-435 -2 -11 -6 -31 -9 -45 -10 -47 -15 -75 -21 -120 -3 -25 -7 -47 -9 -50 -2
-3 -6 -43 -10 -90 -4 -47 -9 -94 -11 -105 -8 -38 -18 -320 -18 -505 0 -194 13
-426 28 -515 3 -16 8 -48 12 -70 61 -421 246 -805 512 -1066 75 -74 237 -210
326 -274 16 -11 33 -24 40 -30 52 -46 428 -306 786 -545 168 -111 315 -210
326 -219 12 -9 32 -23 44 -31 40 -27 308 -228 342 -257 92 -79 197 -188 227
-237 34 -57 85 -194 95 -256 8 -50 16 -92 20 -115 3 -11 8 -56 11 -100 3 -44
8 -96 11 -115 5 -49 5 -407 -1 -450 -35 -247 -98 -366 -229 -430 -183 -89
-417 -29 -481 123 -30 72 -47 169 -60 342 -2 28 -4 305 -4 617 l-1 566 -972
-1 -973 -2 1 -340 c0 -305 9 -640 18 -735 2 -19 7 -66 10 -105 4 -38 9 -86 12
-105 15 -113 24 -173 30 -204 2 -11 7 -37 10 -56 25 -145 103 -395 153 -492
124 -243 355 -475 623 -628 257 -147 525 -252 788 -308 135 -29 151 -32 280
-48 30 -4 63 -8 73 -10 98 -18 500 -24 687 -11 570 41 1046 208 1445 507 298
224 457 494 529 900 3 19 8 46 11 60 6 32 13 82 21 155 3 33 8 69 10 79 24
127 24 834 0 1071 -45 438 -119 739 -244 990 -93 188 -195 316 -403 510 -246
229 -678 546 -1084 794 -66 41 -143 89 -172 107 -28 19 -60 37 -70 41 -10 4
-22 11 -28 15 -5 5 -74 48 -152 96 -394 241 -538 390 -602 622 -38 139 -45
202 -45 420 -1 259 12 343 75 459 66 126 169 186 314 185 144 -2 223 -56 266
-181 37 -110 47 -246 48 -657 1 -214 3 -392 5 -395 2 -3 440 -6 973 -6 l968 0
-1 240 c0 217 -9 517 -18 620 -12 125 -23 216 -41 340 -12 80 -58 272 -81 341
-117 350 -363 593 -810 801 -175 82 -453 170 -624 198 -19 3 -42 8 -50 10 -8
2 -40 7 -70 10 -30 3 -62 8 -70 10 -8 2 -46 7 -85 10 -38 4 -83 9 -100 12 -38
5 -631 14 -636 9z"/>
<path d="M24089 20376 c-2 -2 -44 -7 -94 -10 -155 -11 -293 -33 -455 -73 -97
-23 -278 -80 -325 -102 -156 -72 -237 -114 -325 -169 -58 -36 -107 -68 -110
-72 -3 -3 -39 -31 -81 -63 -150 -111 -331 -304 -423 -450 -135 -212 -220 -507
-262 -902 -3 -33 -8 -68 -9 -77 -3 -15 -10 -101 -20 -243 -9 -115 -18 -358
-19 -470 l-1 -120 1000 0 1000 0 1 370 c1 345 9 657 18 715 2 14 7 52 10 85
11 99 16 127 37 200 42 142 122 205 267 211 190 8 279 -73 313 -285 21 -135
23 -237 23 -1191 0 -1059 -4 -1216 -35 -1440 -36 -248 -143 -351 -360 -344
-179 6 -271 111 -306 349 -3 22 -6 55 -6 73 l0 32 -111 0 c-61 1 -473 1 -916
1 l-805 0 -1 -1105 -2 -1105 933 -1 c745 0 934 2 937 12 3 7 4 200 4 430 -1
229 2 414 5 412 3 -2 19 -22 35 -46 45 -66 63 -87 149 -174 174 -175 379 -275
649 -319 111 -17 408 -17 521 1 366 60 659 209 921 469 75 74 204 232 204 248
0 3 15 29 33 59 43 73 101 222 126 328 28 120 56 285 66 401 4 35 8 75 10 88
25 151 25 1759 0 2071 -16 209 -23 264 -60 490 -10 63 -66 249 -101 341 -165
428 -451 796 -785 1011 -190 123 -437 233 -619 274 -19 4 -37 8 -40 9 -6 1
-123 28 -130 30 -3 0 -27 4 -53 9 -27 4 -59 9 -70 12 -12 2 -49 7 -82 10 -33
3 -71 8 -85 11 -29 6 -565 14 -571 9z"/>
<path d="M3305 20151 c3 -36 8 -75 10 -86 4 -20 11 -77 19 -157 13 -120 18
-165 22 -187 2 -14 6 -54 10 -90 3 -36 8 -74 10 -84 2 -10 6 -46 9 -80 3 -34
8 -73 10 -87 2 -14 7 -50 10 -80 3 -30 10 -89 15 -130 9 -72 13 -103 25 -215
2 -27 7 -68 10 -90 3 -22 7 -62 10 -90 7 -67 15 -125 20 -155 2 -14 7 -55 10
-92 3 -37 7 -75 9 -85 2 -10 7 -49 10 -85 4 -37 8 -75 10 -85 2 -10 7 -48 10
-84 4 -36 8 -76 11 -90 2 -13 7 -53 10 -89 4 -36 8 -76 10 -90 12 -104 16
-131 21 -180 3 -30 8 -66 10 -80 2 -14 6 -54 9 -90 4 -36 8 -72 10 -80 2 -8 7
-48 10 -89 4 -41 9 -83 11 -94 2 -11 6 -45 9 -76 3 -31 8 -70 10 -87 2 -16 7
-59 10 -95 4 -35 8 -75 11 -89 2 -14 8 -66 14 -115 5 -50 12 -106 14 -125 5
-29 22 -184 52 -445 3 -27 7 -61 9 -75 2 -14 7 -50 10 -80 3 -30 10 -93 16
-140 5 -47 12 -105 15 -130 2 -25 7 -58 9 -75 2 -16 7 -61 10 -100 4 -38 8
-77 10 -85 2 -8 6 -40 10 -70 3 -30 8 -71 10 -90 3 -19 7 -62 11 -95 3 -33 7
-71 9 -85 11 -78 15 -111 20 -165 3 -33 8 -71 10 -85 2 -14 6 -54 10 -90 4
-36 8 -76 10 -90 2 -14 7 -47 10 -75 6 -59 13 -112 25 -215 5 -41 12 -104 15
-140 3 -36 8 -72 10 -80 2 -8 6 -44 10 -80 3 -36 7 -75 9 -86 2 -11 7 -54 11
-95 4 -40 8 -76 10 -79 2 -3 6 -37 10 -75 3 -39 8 -83 10 -100 2 -16 7 -57 10
-90 4 -33 9 -73 11 -90 2 -16 6 -50 9 -75 3 -25 7 -67 10 -95 7 -59 12 -101
20 -170 6 -57 14 -121 20 -156 2 -13 6 -53 10 -89 3 -36 8 -78 10 -95 2 -16 7
-55 10 -86 3 -31 7 -65 9 -75 2 -11 7 -50 10 -89 4 -38 8 -81 11 -95 2 -14 7
-52 10 -85 3 -33 8 -73 10 -90 4 -32 10 -84 21 -180 3 -33 8 -62 10 -64 7 -7
2585 -7 2589 0 5 7 12 47 21 108 3 25 8 57 10 71 2 14 11 77 20 140 8 63 17
126 19 140 7 46 64 445 70 495 4 28 8 57 10 65 3 8 7 40 10 70 3 30 8 62 10
70 3 8 7 40 10 70 3 30 7 62 10 70 2 8 7 40 10 70 3 30 8 62 10 70 2 8 7 40
10 70 3 30 10 80 15 110 5 30 11 78 15 105 3 28 7 61 10 75 5 27 5 28 35 250
12 85 23 166 25 180 18 126 22 150 30 215 3 28 8 62 10 76 3 14 7 43 10 64 2
22 10 75 16 120 12 86 14 102 24 185 3 30 8 62 10 70 2 8 7 38 10 66 3 28 7
59 9 70 2 11 7 47 11 79 4 33 9 74 11 90 3 17 7 41 9 55 2 14 9 68 15 120 7
52 14 103 16 114 2 10 6 44 10 75 3 31 8 58 9 61 2 3 7 42 10 85 4 44 8 82 10
85 2 3 6 34 10 70 4 36 8 72 10 80 2 8 6 44 10 80 8 72 25 105 26 50 0 -19 2
-42 3 -50 2 -8 6 -44 10 -80 4 -36 9 -74 11 -85 2 -11 7 -49 10 -85 4 -36 8
-78 11 -95 2 -16 6 -50 9 -75 3 -25 7 -63 10 -85 3 -22 8 -56 10 -75 9 -77 16
-136 20 -160 7 -43 32 -236 51 -390 3 -25 7 -56 9 -70 2 -14 7 -47 11 -75 3
-27 8 -59 10 -70 2 -11 9 -56 14 -100 12 -88 16 -117 31 -220 6 -38 12 -81 14
-95 4 -28 15 -102 20 -140 6 -33 16 -108 20 -145 2 -16 11 -75 20 -130 9 -55
18 -113 21 -130 2 -16 6 -41 9 -55 2 -14 7 -43 10 -65 3 -23 7 -52 10 -65 3
-14 8 -45 11 -70 3 -25 7 -54 9 -65 2 -11 6 -42 10 -70 4 -27 9 -52 10 -55 2
-3 6 -26 9 -50 4 -25 9 -56 11 -70 3 -14 7 -38 9 -55 3 -16 19 -111 36 -210
16 -99 32 -193 35 -210 4 -27 13 -76 21 -113 1 -8 8 -46 14 -85 6 -40 15 -88
20 -107 5 -19 11 -53 14 -75 4 -22 11 -62 16 -90 5 -27 12 -66 16 -85 26 -152
33 -183 42 -189 11 -7 2599 -7 2606 -1 4 5 7 26 21 150 12 100 16 137 20 170
2 19 7 60 10 90 3 30 8 71 10 90 2 19 7 60 10 90 4 30 8 66 10 80 3 22 8 67
20 180 2 14 6 52 10 85 3 33 8 78 11 100 11 83 13 101 19 155 3 30 7 69 9 85
2 17 7 59 11 95 4 36 9 72 10 80 2 8 6 49 10 90 4 41 9 83 10 92 2 9 6 48 10
85 3 37 8 79 10 93 3 14 7 52 10 85 3 33 8 71 10 85 2 14 7 54 11 90 3 36 7
72 9 80 2 8 6 44 9 80 8 72 11 98 25 215 6 44 13 105 16 135 3 30 7 69 9 85 2
17 7 59 11 95 4 36 8 76 10 90 5 36 23 195 30 261 3 31 7 65 9 75 2 11 7 51
10 89 4 39 9 81 11 95 2 14 6 52 10 85 3 33 8 74 10 90 3 17 7 50 10 75 8 76
13 122 21 190 4 36 8 72 9 80 3 32 17 166 20 180 3 19 13 99 20 165 3 28 7 70
10 95 3 25 8 65 10 90 3 25 7 61 10 80 2 19 7 60 10 90 4 30 8 66 10 80 2 14
6 54 10 90 3 36 8 76 10 90 2 14 7 50 10 80 3 30 8 66 10 80 2 14 7 59 11 100
3 41 7 82 9 90 1 8 6 44 10 80 4 36 9 79 11 95 2 17 6 55 9 85 3 30 8 66 10
80 2 14 7 54 10 90 4 36 8 76 10 90 4 24 20 156 30 255 5 51 13 117 20 170 2
17 7 57 10 90 4 33 8 74 10 90 2 17 9 75 15 130 11 102 16 140 24 210 3 22 8
65 11 95 3 30 7 71 10 90 15 116 25 201 29 245 6 56 24 212 31 265 2 19 7 60
10 90 3 30 8 71 10 90 2 19 7 60 10 90 10 92 25 223 30 260 2 14 7 55 10 91
l7 67 -1011 0 c-927 0 -1011 -2 -1015 -17 -2 -9 -7 -38 -11 -66 -11 -81 -15
-115 -30 -210 -8 -49 -17 -117 -20 -150 -4 -33 -8 -67 -10 -75 -2 -8 -7 -35
-10 -60 -5 -44 -13 -99 -20 -150 -5 -32 -53 -399 -61 -465 -4 -27 -8 -57 -9
-65 -1 -8 -6 -46 -10 -85 -4 -38 -9 -79 -11 -90 -2 -11 -6 -40 -9 -65 -3 -25
-8 -63 -10 -85 -17 -145 -35 -299 -40 -350 -4 -33 -8 -67 -10 -75 -2 -8 -7
-44 -10 -80 -3 -36 -8 -81 -10 -100 -2 -19 -7 -60 -10 -90 -3 -30 -8 -66 -10
-80 -2 -14 -7 -61 -10 -105 -4 -44 -8 -87 -10 -95 -2 -8 -7 -49 -10 -90 -4
-41 -8 -86 -10 -100 -3 -22 -16 -150 -30 -300 -3 -30 -7 -68 -9 -85 -2 -16 -7
-70 -11 -119 -4 -50 -8 -97 -10 -105 -1 -9 -6 -54 -10 -101 -4 -47 -9 -102
-11 -124 -2 -21 -6 -68 -9 -105 -3 -36 -7 -91 -10 -121 -3 -30 -7 -84 -10
-120 -3 -36 -8 -85 -10 -110 -3 -25 -7 -84 -10 -132 -3 -47 -7 -101 -10 -120
-2 -18 -6 -76 -10 -128 -4 -52 -8 -111 -10 -130 -2 -20 -6 -81 -10 -135 -3
-55 -8 -122 -10 -150 -8 -96 -16 -208 -20 -289 -3 -44 -7 -112 -10 -151 -2
-38 -7 -110 -10 -160 -14 -237 -24 -309 -26 -184 0 35 -2 73 -4 84 -2 11 -7
61 -10 110 -4 50 -8 110 -10 135 -8 101 -16 199 -20 260 -2 36 -7 97 -10 135
-7 85 -12 154 -20 260 -6 86 -13 173 -20 245 -2 25 -7 88 -10 140 -3 52 -8
111 -10 130 -3 19 -7 76 -10 125 -3 50 -8 113 -10 140 -3 28 -7 84 -10 125 -5
80 -12 180 -20 270 -3 30 -7 91 -10 135 -3 44 -7 100 -10 125 -2 25 -7 83 -10
130 -4 47 -8 105 -10 130 -2 25 -7 83 -10 130 -3 47 -8 103 -10 125 -2 22 -6
78 -10 125 -6 96 -13 174 -30 380 -3 30 -7 89 -10 130 -3 41 -8 98 -10 125 -2
28 -7 86 -10 130 -3 44 -8 98 -10 120 -2 22 -7 81 -10 130 -3 50 -8 106 -10
125 -6 53 -14 146 -20 240 -3 47 -8 101 -10 120 -2 19 -7 71 -10 115 -7 96
-13 173 -20 240 -2 28 -7 82 -10 120 -10 120 -23 269 -30 330 -2 22 -7 72 -10
110 -3 39 -8 86 -11 106 l-5 37 -1090 0 c-802 0 -1089 -3 -1089 -12 0 -6 -5
-42 -10 -81 -10 -71 -16 -112 -25 -187 -11 -83 -16 -123 -20 -148 -2 -14 -9
-63 -15 -110 -6 -47 -12 -101 -15 -120 -11 -83 -21 -156 -30 -235 -4 -32 -8
-66 -10 -75 -2 -9 -6 -46 -9 -82 -4 -37 -9 -75 -11 -86 -2 -10 -6 -43 -9 -73
-4 -30 -9 -70 -11 -89 -3 -19 -7 -55 -10 -80 -5 -48 -14 -109 -20 -150 -2 -14
-7 -50 -10 -80 -3 -30 -8 -71 -10 -90 -2 -19 -7 -60 -10 -90 -4 -30 -8 -66
-10 -80 -2 -14 -7 -54 -10 -90 -4 -36 -8 -72 -10 -80 -1 -8 -6 -46 -9 -85 -4
-38 -9 -81 -11 -95 -4 -26 -16 -118 -20 -160 -6 -61 -17 -166 -20 -181 -2 -8
-6 -49 -10 -90 -3 -41 -8 -87 -10 -104 -3 -16 -7 -57 -10 -90 -4 -33 -8 -73
-10 -90 -2 -16 -7 -57 -10 -90 -3 -33 -8 -73 -10 -90 -2 -16 -6 -57 -10 -90
-7 -76 -24 -238 -30 -290 -2 -22 -7 -74 -10 -115 -3 -41 -8 -91 -10 -110 -2
-19 -7 -64 -10 -100 -3 -36 -8 -81 -10 -100 -3 -19 -7 -64 -10 -100 -9 -113
-17 -208 -30 -350 -10 -103 -15 -169 -20 -240 -3 -41 -7 -95 -10 -120 -3 -25
-7 -88 -11 -140 -3 -52 -7 -111 -9 -130 -2 -19 -6 -87 -10 -150 -4 -63 -8
-131 -10 -150 -2 -19 -5 -66 -6 -103 -2 -83 -15 -70 -18 18 -1 36 -4 74 -6 86
-3 12 -7 65 -10 118 -3 53 -8 112 -10 131 -3 19 -7 73 -10 120 -3 47 -7 105
-10 130 -6 58 -15 170 -20 240 -7 109 -16 216 -20 260 -2 25 -7 81 -10 125 -3
44 -8 105 -11 135 -9 104 -13 165 -19 245 -3 44 -8 103 -10 130 -2 28 -7 84
-10 125 -3 41 -7 95 -10 120 -2 25 -6 88 -10 140 -3 52 -8 106 -10 120 -2 14
-7 68 -10 120 -3 52 -8 111 -9 130 -4 32 -9 103 -21 265 -3 33 -7 92 -10 130
-3 39 -8 99 -10 135 -5 65 -12 155 -20 260 -3 30 -7 89 -10 130 -3 41 -7 98
-10 125 -3 28 -7 86 -10 130 -3 44 -7 105 -10 135 -2 30 -7 91 -10 135 -3 44
-8 101 -10 126 -2 25 -7 83 -10 130 -3 46 -7 109 -10 139 -2 30 -7 91 -10 135
-3 44 -7 96 -10 115 -2 19 -7 82 -10 140 -4 58 -8 119 -10 135 -2 17 -7 77
-10 135 -3 58 -8 116 -10 130 -2 14 -7 71 -10 127 -4 56 -8 110 -10 120 -2 10
-4 21 -4 24 -1 4 -458 7 -1016 7 l-1016 -1 6 -66z"/>
<path d="M11650 19409 l0 -809 113 0 c61 0 338 -1 614 0 l503 0 2 -3217 3
-3217 1025 0 c564 -1 1035 1 1046 2 l21 4 1 3166 c0 1742 1 3188 1 3214 l1 47
508 0 c279 0 558 1 620 1 l112 0 0 808 0 809 -2285 0 -2285 0 0 -808z"/>
<path d="M22095 13770 c-2 -3 -3 -364 -3 -802 0 -593 3 -798 12 -799 47 -4
1840 -3 1849 1 10 4 13 171 13 803 0 438 -3 798 -6 798 -18 4 -1862 3 -1865
-1z"/>
<path d="M10032 11528 c-137 -21 -202 -98 -218 -259 -13 -132 -8 -1345 6
-1427 16 -95 56 -156 125 -192 42 -21 64 -25 155 -27 205 -5 286 49 320 210
13 63 20 1041 9 1337 -6 179 -18 229 -68 283 -61 67 -188 96 -329 75z m186
-147 c44 -24 52 -65 58 -303 14 -496 4 -1191 -16 -1254 -19 -57 -103 -85 -195
-64 -85 19 -95 44 -101 245 -6 199 -6 1029 1 1176 6 149 20 186 77 208 33 12
149 7 176 -8z"/>
<path d="M11381 11529 c-123 -16 -187 -64 -218 -167 -15 -49 -18 -97 -18 -327
0 -252 1 -275 23 -342 35 -113 76 -146 236 -187 122 -32 149 -47 170 -91 26
-54 31 -111 31 -345 0 -234 -6 -260 -60 -296 -37 -24 -122 -26 -173 -4 -69 31
-75 55 -78 315 -2 121 -3 222 -3 225 -1 3 -32 5 -70 6 -56 0 -71 -4 -74 -16
-8 -31 -4 -410 5 -452 22 -109 56 -161 133 -201 56 -29 227 -34 304 -10 94 30
149 103 166 219 16 99 9 471 -10 560 -11 53 -38 110 -66 136 -29 28 -98 65
-137 73 -67 14 -151 40 -174 53 -58 34 -76 141 -72 441 3 233 22 270 142 277
74 4 119 -17 146 -70 18 -35 20 -60 20 -250 l1 -211 70 0 c48 0 72 4 75 13 11
26 3 417 -9 462 -35 127 -109 184 -251 192 -30 2 -79 0 -109 -3z"/>
<path d="M17540 11529 c-120 -14 -194 -72 -222 -173 -9 -29 -17 -104 -18 -167
-6 -222 -3 -1245 3 -1307 13 -128 50 -192 134 -233 62 -30 237 -37 310 -13
133 44 168 118 173 364 5 253 2 1185 -4 1265 -7 92 -36 164 -82 205 -58 50
-173 73 -294 59z m176 -154 c49 -32 53 -97 53 -815 0 -621 -4 -724 -32 -761
-35 -46 -145 -61 -214 -28 -74 36 -73 27 -73 824 0 695 3 740 46 775 37 32
175 35 220 5z"/>
<path d="M4235 11427 c3 -51 7 -119 10 -152 3 -33 7 -94 10 -135 3 -41 7 -106
10 -145 2 -38 7 -110 10 -160 3 -49 7 -121 10 -160 7 -86 13 -175 20 -291 3
-49 8 -116 10 -149 3 -33 7 -107 11 -165 3 -58 7 -121 9 -140 2 -19 7 -89 11
-155 3 -66 10 -124 15 -130 13 -13 257 -14 269 -1 4 6 11 45 15 86 3 41 8 91
10 110 5 44 14 138 20 210 3 30 7 70 10 90 4 33 8 92 20 295 3 50 7 119 10
155 2 36 7 117 10 180 3 63 7 138 10 165 3 28 8 106 11 175 4 69 8 145 9 170
2 25 4 55 4 68 1 18 6 23 23 20 19 -3 23 -10 24 -48 2 -52 12 -233 19 -335 7
-97 15 -235 20 -330 5 -88 12 -203 20 -335 4 -81 12 -164 20 -240 2 -19 7 -64
10 -100 3 -36 8 -83 10 -105 2 -22 7 -74 10 -115 3 -41 8 -84 10 -95 2 -11 4
-22 4 -25 1 -7 268 -6 274 0 3 3 8 48 11 100 7 94 10 144 21 290 13 185 23
329 30 445 3 50 8 115 10 145 2 30 7 93 10 140 3 47 8 112 10 145 2 33 7 103
10 155 4 52 8 118 10 145 4 52 17 247 18 268 1 46 0 47 -78 45 l-75 -2 -1 -40
c-1 -23 -2 -54 -4 -71 -1 -16 -5 -86 -9 -155 -4 -69 -8 -150 -11 -180 -8 -112
-16 -248 -20 -340 -3 -52 -7 -144 -11 -205 -7 -122 -8 -152 -19 -375 -4 -85
-9 -173 -10 -195 -2 -22 -4 -70 -5 -107 -2 -48 -7 -69 -18 -73 -26 -10 -28 0
-36 152 -4 59 -8 142 -11 183 -5 74 -10 163 -20 330 -3 47 -8 114 -10 150 -3
36 -7 108 -10 160 -3 52 -7 106 -10 120 -4 24 -12 95 -20 185 -5 48 -13 114
-21 171 -3 23 -7 59 -9 80 -2 33 -13 132 -20 184 -2 12 -24 15 -123 16 l-121
1 -6 -46 c-3 -26 -8 -58 -9 -71 -10 -85 -17 -151 -21 -190 -6 -62 -33 -302
-40 -361 -2 -14 -7 -79 -10 -145 -4 -65 -8 -144 -10 -174 -2 -30 -7 -104 -10
-165 -4 -60 -8 -135 -10 -165 -2 -30 -7 -111 -10 -180 -4 -69 -8 -141 -10
-160 -2 -19 -4 -44 -4 -55 -1 -14 -8 -21 -21 -21 -11 0 -21 5 -21 11 -2 18 -8
126 -24 455 -5 101 -14 270 -20 385 -2 39 -6 126 -10 195 -3 69 -8 154 -10
190 -4 57 -9 154 -20 345 -2 28 -3 75 -4 106 l-1 56 -80 0 -81 1 6 -91z"/>
<path d="M5519 11506 c-4 -39 -3 -1866 1 -1867 3 -1 38 -2 78 -3 l72 -2 0 438
0 438 28 1 c119 2 264 0 268 -4 3 -3 7 -200 7 -438 l2 -433 75 -1 75 0 2 938
c2 515 -1 938 -5 939 -4 0 -39 2 -78 3 l-72 2 0 -401 c-1 -220 -1 -416 -1
-433 l-1 -33 -150 0 -150 0 0 434 0 433 -75 0 c-48 0 -75 -4 -76 -11z"/>
<path d="M6379 11516 c-1 -1 -1 -1858 0 -1871 1 -7 92 -10 264 -10 l262 0 0
70 0 70 -185 0 -185 0 -2 368 -1 367 26 1 c15 0 90 0 167 0 77 0 144 4 150 9
6 5 10 35 10 67 l-1 58 -176 3 -175 2 0 360 c0 259 3 360 11 362 6 1 79 2 161
4 83 1 162 2 178 3 27 1 27 1 25 69 l-3 67 -262 1 c-145 1 -263 1 -264 0z"/>
<path d="M7085 10585 c0 -514 4 -937 8 -942 4 -4 39 -8 77 -8 l70 -1 1 61 c0
33 0 193 0 357 l-1 296 61 4 c34 1 65 0 71 -3 9 -6 40 -128 134 -524 49 -208
36 -189 132 -190 69 -1 81 2 77 15 -6 20 -113 439 -132 515 -8 33 -16 67 -18
75 -3 8 -9 35 -15 60 -6 25 -13 53 -16 62 -4 12 7 25 36 43 63 40 94 103 108
220 9 72 8 546 -1 634 -8 87 -32 144 -77 188 -57 55 -102 65 -320 69 l-195 3
0 -934z m383 768 c55 -41 60 -78 60 -413 0 -428 -5 -442 -185 -444 l-98 -1 -2
441 -1 441 99 -2 c82 -1 105 -5 127 -22z"/>
<path d="M7894 11506 c-2 -6 -3 -429 -2 -941 l3 -930 262 0 263 0 0 70 0 71
-185 -1 c-158 0 -185 2 -186 15 0 8 -2 174 -2 368 l-2 352 30 1 c17 0 95 1
175 2 l145 2 1 68 2 67 -177 0 -176 0 2 347 c0 192 2 355 2 364 1 14 24 15
186 15 l185 -1 0 71 0 71 -261 0 c-182 0 -262 -3 -265 -11z"/>
<path d="M9039 11511 c0 -3 -1 -34 -2 -69 -2 -56 0 -62 18 -63 11 -1 65 -2
120 -3 l100 -1 2 -865 c0 -476 2 -867 2 -870 1 -3 36 -5 78 -5 l78 0 0 870 0
870 110 0 c61 0 115 3 120 7 6 3 9 35 7 71 l-4 64 -314 0 c-173 0 -314 -3
-315 -6z"/>
<path d="M11997 11512 c-2 -4 -3 -374 -2 -822 1 -634 4 -827 14 -870 32 -133
105 -189 257 -198 155 -8 258 28 302 108 44 79 45 107 46 900 1 415 0 785 -2
821 l-4 65 -74 2 c-53 1 -74 -2 -74 -11 0 -6 -1 -380 -1 -829 -1 -740 -2 -820
-17 -849 -25 -48 -59 -68 -122 -73 -64 -5 -112 14 -144 57 -21 28 -21 32 -21
863 0 733 -2 835 -15 838 -28 7 -139 6 -143 -2z"/>
<path d="M12864 10577 l0 -942 176 0 c103 1 195 6 225 14 108 27 166 98 183
224 5 37 8 170 7 295 -2 205 -4 231 -23 272 -25 56 -60 96 -95 109 -38 15 -35
45 8 71 94 58 111 127 109 430 -2 234 -4 265 -29 325 -28 66 -70 101 -149 127
-17 6 -117 12 -221 13 l-191 4 0 -942z m364 779 c22 -11 40 -32 52 -59 17 -38
19 -66 17 -287 -2 -225 -4 -248 -22 -279 -36 -61 -66 -76 -166 -79 l-89 -4 0
364 0 365 88 -2 c61 -1 97 -7 120 -19z m5 -869 c33 -22 53 -59 61 -117 8 -55
8 -434 1 -474 -18 -91 -64 -118 -205 -120 l-65 -1 -3 367 -2 367 22 3 c51 7
165 -8 191 -25z"/>
<path d="M13666 10586 c1 -512 2 -936 3 -941 0 -6 32 -11 76 -10 l75 0 1 30
c2 117 -2 691 -5 830 -5 156 -16 627 -19 805 -2 72 -1 75 22 76 27 2 28 -2 36
-81 2 -33 7 -76 9 -95 3 -19 7 -62 10 -95 3 -33 8 -71 11 -85 2 -14 7 -54 9
-90 3 -36 8 -83 11 -105 3 -22 7 -60 10 -85 2 -25 6 -61 9 -80 3 -19 8 -62 11
-95 9 -99 17 -169 20 -193 2 -13 7 -53 10 -90 3 -37 8 -77 11 -90 2 -12 7 -44
10 -70 3 -26 7 -58 9 -72 5 -28 43 -292 51 -355 3 -22 7 -43 10 -46 5 -8 233
-8 238 0 4 5 9 38 22 141 2 19 7 46 9 60 3 14 9 61 15 105 12 89 18 128 25
165 2 14 7 50 10 80 8 88 16 163 20 190 2 14 7 52 10 85 3 33 8 71 10 85 2 14
7 59 10 100 4 41 9 83 10 92 2 9 6 48 10 85 3 37 8 79 10 93 3 14 7 54 10 90
3 36 8 76 10 90 2 14 7 50 10 80 19 204 16 189 45 187 14 -1 20 -9 20 -27 1
-48 -2 -296 -6 -440 -2 -80 -6 -399 -10 -710 l-7 -565 77 0 c42 0 77 2 77 5 4
14 5 1857 2 1866 -5 13 -290 17 -298 5 -2 -4 -7 -32 -10 -62 -3 -30 -7 -65
-10 -79 -2 -14 -7 -43 -9 -65 -7 -56 -16 -125 -21 -155 -2 -14 -7 -50 -10 -80
-3 -30 -8 -66 -10 -80 -10 -71 -15 -110 -21 -159 -3 -30 -7 -61 -9 -70 -1 -9
-6 -52 -9 -96 -4 -44 -9 -100 -11 -125 -7 -59 -13 -129 -20 -215 -9 -109 -15
-166 -20 -215 -7 -62 -13 -140 -20 -235 -6 -86 -12 -99 -38 -89 -11 4 -17 18
-18 43 0 20 -2 44 -4 55 -2 10 -7 58 -10 105 -4 47 -8 97 -10 111 -2 14 -7 61
-10 105 -4 44 -8 94 -10 110 -2 17 -6 71 -10 120 -4 50 -8 100 -10 112 -2 12
-6 57 -10 100 -8 99 -9 107 -34 293 -11 85 -23 175 -26 200 -5 45 -13 103 -20
150 -2 14 -9 69 -16 122 -9 75 -15 98 -28 102 -9 2 -77 4 -151 4 l-135 0 1
-932z"/>
<path d="M14939 11517 c-1 -1 -2 -425 -3 -942 l-1 -941 77 1 78 0 0 941 0 941
-75 1 c-41 0 -76 -1 -76 -1z"/>
<path d="M15251 11449 c2 -79 -4 -76 142 -73 l97 2 1 -42 c0 -22 1 -414 2
-871 l2 -830 78 0 77 -1 0 871 0 871 108 -1 c59 -1 113 1 120 3 8 3 12 26 12
71 l0 68 -320 0 -321 0 2 -68z"/>
<path d="M16490 11514 c0 -3 4 -24 9 -47 5 -23 15 -71 21 -107 6 -36 16 -85
21 -110 5 -25 11 -56 13 -70 2 -14 11 -63 20 -110 8 -47 18 -98 21 -115 2 -16
7 -41 10 -55 11 -55 103 -547 120 -645 2 -11 7 -33 11 -50 4 -16 10 -151 13
-300 l6 -270 73 0 c39 -1 73 2 73 5 1 3 3 120 4 260 2 212 6 273 23 360 23
116 30 148 38 200 3 19 12 65 19 101 8 37 19 95 25 130 5 35 12 75 15 89 3 14
8 39 10 55 5 26 39 207 51 270 2 11 18 97 34 190 17 94 33 182 36 197 l5 27
-80 -1 c-45 0 -81 -4 -82 -7 -4 -34 -17 -124 -24 -161 -2 -14 -7 -43 -10 -65
-3 -22 -12 -83 -21 -135 -16 -100 -18 -112 -29 -199 -4 -30 -8 -63 -11 -74 -2
-10 -6 -45 -9 -76 -3 -31 -8 -68 -11 -83 -6 -28 -10 -62 -19 -143 -13 -113
-16 -125 -36 -125 -10 0 -19 3 -20 8 0 4 -2 14 -4 22 -4 21 -14 88 -20 140 -3
25 -7 56 -10 70 -3 23 -14 104 -20 155 -2 11 -6 38 -9 60 -3 22 -10 72 -16
110 -6 39 -13 86 -16 105 -3 19 -14 91 -24 160 -27 172 -31 203 -34 220 -2 12
-21 15 -84 17 -45 0 -82 -1 -82 -3z"/>
<path d="M18163 11502 c-9 -22 -8 -1551 0 -1626 15 -125 49 -183 133 -226 45
-23 60 -25 174 -25 112 1 130 3 170 24 73 39 99 77 127 185 3 12 6 395 7 852
l2 832 -79 -2 -79 -1 2 -210 c2 -342 2 -737 0 -1102 -2 -317 -4 -346 -22 -382
-13 -28 -30 -44 -56 -54 -49 -20 -137 -14 -171 11 -58 43 -56 3 -56 907 l-1
830 -72 2 c-60 1 -74 -1 -79 -15z"/>
<path d="M19027 11512 c-3 -6 -1 -1824 2 -1862 1 -13 16 -16 76 -15 l75 0 0
357 0 358 28 1 c43 2 105 -1 110 -6 4 -4 15 -47 97 -390 25 -104 52 -219 61
-255 l17 -66 83 1 c70 0 83 2 79 15 -2 8 -27 105 -55 215 -28 110 -69 269 -91
353 -21 84 -39 154 -39 155 0 2 20 18 45 36 96 69 109 133 109 541 -1 255 -4
326 -17 373 -25 95 -69 144 -157 176 -38 14 -417 26 -423 13z m378 -156 c13
-9 33 -31 42 -49 16 -29 18 -66 18 -372 0 -325 -1 -342 -21 -375 -29 -50 -64
-64 -169 -64 l-90 -1 -3 430 c-1 237 0 435 2 442 7 18 189 10 221 -11z"/>
<path d="M20334 11507 c-2 -7 -3 -430 -2 -942 l3 -930 75 0 75 0 1 363 c1 199
3 365 6 367 3 3 47 6 99 7 193 3 285 55 319 180 19 68 27 318 20 598 -6 236
-54 320 -205 355 -68 16 -385 17 -391 2z m379 -152 c14 -9 34 -38 44 -63 16
-41 18 -83 17 -342 0 -333 -6 -376 -58 -413 -26 -18 -47 -23 -128 -25 -97 -4
-98 -4 -99 20 -1 27 -1 830 0 840 1 4 45 5 100 3 71 -2 106 -8 124 -20z"/>
<path d="M21186 11511 c-2 -3 -7 -42 -11 -86 -4 -44 -8 -93 -10 -110 -2 -16
-6 -52 -9 -80 -3 -27 -8 -70 -11 -95 -2 -25 -7 -70 -10 -100 -4 -30 -8 -66
-10 -80 -2 -14 -6 -61 -10 -104 -4 -43 -8 -86 -10 -95 -1 -9 -6 -50 -10 -91
-3 -41 -8 -82 -10 -90 -2 -8 -7 -53 -10 -100 -4 -47 -8 -87 -10 -90 -2 -3 -6
-40 -10 -83 -3 -43 -8 -88 -11 -100 -2 -12 -6 -55 -10 -95 -3 -40 -7 -81 -9
-90 -1 -9 -6 -51 -10 -92 -4 -41 -9 -82 -10 -90 -2 -8 -6 -54 -10 -102 -4 -48
-8 -91 -9 -95 0 -5 34 -8 77 -8 42 0 77 2 78 5 0 3 2 14 4 25 3 22 10 92 25
270 6 66 13 136 15 155 2 19 4 47 5 63 l0 27 140 0 140 0 1 -32 c1 -18 3 -42
4 -53 2 -11 6 -58 10 -105 3 -47 8 -95 10 -108 2 -12 7 -64 11 -115 8 -114 8
-115 18 -124 4 -4 41 -8 81 -8 l74 -1 -4 31 c-2 16 -6 55 -9 85 -3 30 -10 96
-16 145 -5 50 -12 117 -15 150 -3 33 -8 76 -10 95 -6 45 -13 110 -20 185 -8
82 -15 143 -21 185 -2 19 -7 62 -9 95 -3 33 -7 76 -10 95 -4 30 -15 137 -31
290 -5 50 -12 117 -19 170 -2 19 -7 60 -10 90 -16 173 -26 253 -30 260 -5 9
-284 10 -289 1z m179 -152 c2 -8 6 -56 9 -105 4 -49 9 -107 11 -129 2 -22 7
-76 10 -120 7 -94 13 -171 20 -240 6 -72 15 -173 20 -225 4 -54 17 -191 19
-205 0 -6 -46 -10 -123 -11 l-123 0 7 80 c8 96 13 157 20 211 2 22 7 76 10
120 3 44 8 98 10 120 3 22 7 74 10 115 3 41 8 95 10 120 3 25 7 83 11 130 4
47 8 96 9 110 2 14 3 30 4 36 2 18 64 11 66 -7z"/>
<path d="M21838 11517 c0 -1 -2 -424 -3 -939 -1 -673 1 -938 9 -941 6 -1 40
-3 76 -2 l65 1 3 367 2 367 88 1 c106 2 133 4 180 20 111 36 156 107 169 263
8 102 8 474 0 584 -12 143 -69 231 -169 262 -35 11 -413 26 -420 17z m370
-161 c63 -33 66 -53 67 -411 0 -300 -1 -322 -20 -360 -29 -58 -70 -75 -177
-75 l-88 0 0 434 0 434 93 -2 c64 -2 102 -8 125 -20z"/>
<path d="M22622 10576 l-1 -942 265 1 264 0 0 70 0 71 -181 0 c-101 -1 -183 3
-187 8 -3 5 -6 171 -6 368 l-1 358 50 1 c28 0 107 1 177 1 l127 0 0 69 0 69
-176 2 -176 3 0 360 -1 360 185 0 184 1 3 70 3 71 -265 0 -264 0 0 -941z"/>
<path d="M23332 10577 l3 -942 75 0 75 0 0 358 0 357 28 1 c35 1 95 1 106 0 4
-1 11 -16 14 -33 3 -18 24 -107 47 -198 22 -91 42 -174 44 -185 2 -11 14 -58
25 -105 28 -111 32 -130 38 -162 3 -16 8 -29 12 -29 26 -5 161 -3 161 3 0 4
-25 105 -56 225 -31 120 -57 225 -59 233 -2 8 -19 75 -38 148 l-34 133 30 16
c71 36 111 119 122 253 5 49 5 497 1 570 -9 149 -54 230 -151 269 -55 23 -76
25 -253 27 l-192 3 2 -942z m377 782 c12 -8 31 -33 42 -56 19 -40 21 -62 22
-300 0 -142 -1 -291 -3 -331 -4 -90 -28 -145 -72 -163 -40 -16 -208 -20 -209
-5 -3 32 -4 853 -1 863 5 16 192 10 221 -8z"/>
</g>
</svg>
