<?xml version="1.0" encoding="UTF-8" standalone="no"?>
<!DOCTYPE svg PUBLIC "-//W3C//DTD SVG 1.1//EN" "http://www.w3.org/Graphics/SVG/1.1/DTD/svg11.dtd">
<svg width="100%" height="100%" viewBox="0 0 3000 1500" version="1.1" xmlns="http://www.w3.org/2000/svg" xmlns:xlink="http://www.w3.org/1999/xlink" xml:space="preserve" xmlns:serif="http://www.serif.com/" style="fill-rule:evenodd;clip-rule:evenodd;stroke-linejoin:round;stroke-miterlimit:2;">
    <g transform="matrix(1,0,0,1,-140.194,-703.725)">
        <g transform="matrix(1017.88,0,0,1017.88,469.984,1737.11)">
            <path d="M0.814,-0.791L0.723,0L0.466,0C0.443,-0.121 0.422,-0.259 0.404,-0.414C0.396,-0.348 0.377,-0.21 0.347,0L0.092,0L0,-0.791L0.2,-0.791L0.221,-0.515L0.242,-0.249C0.25,-0.386 0.269,-0.567 0.299,-0.791L0.513,-0.791C0.516,-0.767 0.523,-0.681 0.535,-0.53L0.558,-0.229C0.569,-0.421 0.588,-0.608 0.615,-0.791L0.814,-0.791Z" style="fill:rgb(219,84,97);fill-rule:nonzero;"/>
        </g>
        <g transform="matrix(1017.88,0,0,1017.88,1299,1737.11)">
            <path d="M0.455,-0.791L0.455,-0.632L0.333,-0.632L0.333,0L0.127,0L0.127,-0.632L0.006,-0.632L0.006,-0.791L0.455,-0.791Z" style="fill:rgb(219,84,97);fill-rule:nonzero;"/>
        </g>
        <g transform="matrix(1017.88,0,0,1017.88,1768.17,1737.11)">
            <path d="M0.477,-0.551L0.286,-0.551L0.286,-0.61C0.286,-0.637 0.283,-0.655 0.278,-0.662C0.273,-0.67 0.265,-0.673 0.254,-0.673C0.242,-0.673 0.232,-0.668 0.226,-0.658C0.219,-0.648 0.216,-0.633 0.216,-0.612C0.216,-0.586 0.22,-0.566 0.227,-0.553C0.234,-0.539 0.253,-0.523 0.285,-0.504C0.377,-0.45 0.434,-0.405 0.458,-0.371C0.482,-0.336 0.494,-0.28 0.494,-0.202C0.494,-0.146 0.487,-0.104 0.474,-0.078C0.461,-0.051 0.435,-0.029 0.397,-0.01C0.36,0.008 0.316,0.017 0.266,0.017C0.211,0.017 0.164,0.006 0.125,-0.015C0.086,-0.035 0.06,-0.062 0.048,-0.094C0.036,-0.126 0.03,-0.172 0.03,-0.231L0.03,-0.283L0.221,-0.283L0.221,-0.187C0.221,-0.157 0.224,-0.138 0.229,-0.13C0.235,-0.121 0.244,-0.117 0.258,-0.117C0.271,-0.117 0.282,-0.123 0.288,-0.133C0.295,-0.144 0.298,-0.16 0.298,-0.181C0.298,-0.228 0.292,-0.258 0.279,-0.272C0.266,-0.287 0.234,-0.311 0.183,-0.344C0.132,-0.378 0.098,-0.403 0.082,-0.418C0.065,-0.433 0.051,-0.454 0.04,-0.481C0.029,-0.508 0.024,-0.543 0.024,-0.585C0.024,-0.646 0.032,-0.69 0.047,-0.718C0.063,-0.746 0.088,-0.768 0.122,-0.783C0.157,-0.799 0.198,-0.807 0.247,-0.807C0.3,-0.807 0.346,-0.799 0.384,-0.781C0.421,-0.764 0.446,-0.742 0.458,-0.716C0.47,-0.69 0.477,-0.645 0.477,-0.583L0.477,-0.551Z" style="fill:rgb(219,84,97);fill-rule:nonzero;"/>
        </g>
        <g transform="matrix(1017.88,0,0,1017.88,2294.51,1737.11)">
            <path d="M0.238,-0.536L0.041,-0.536C0.042,-0.605 0.048,-0.656 0.059,-0.688C0.07,-0.719 0.094,-0.747 0.131,-0.771C0.168,-0.795 0.215,-0.807 0.272,-0.807C0.313,-0.807 0.349,-0.801 0.38,-0.788C0.411,-0.775 0.436,-0.756 0.454,-0.733C0.472,-0.71 0.486,-0.685 0.494,-0.658C0.503,-0.631 0.507,-0.588 0.507,-0.531L0.507,-0.434C0.507,-0.39 0.503,-0.355 0.495,-0.328C0.486,-0.301 0.469,-0.278 0.441,-0.258C0.414,-0.238 0.382,-0.228 0.345,-0.228C0.297,-0.228 0.262,-0.246 0.238,-0.284L0.238,-0.199L0.054,-0.199L0.054,-0.416L0.234,-0.416C0.235,-0.386 0.245,-0.371 0.266,-0.371C0.282,-0.371 0.293,-0.378 0.297,-0.391C0.302,-0.404 0.304,-0.436 0.304,-0.488L0.304,-0.619C0.304,-0.648 0.302,-0.668 0.298,-0.677C0.294,-0.687 0.285,-0.692 0.273,-0.692C0.258,-0.692 0.249,-0.686 0.245,-0.673C0.24,-0.659 0.238,-0.63 0.238,-0.583L0.238,-0.536ZM0.238,-0.158L0.238,0L0.054,0L0.054,-0.158L0.238,-0.158Z" style="fill:rgb(219,84,97);fill-rule:nonzero;"/>
        </g>
    </g>
    <g transform="matrix(0.851447,0,0,0.851447,-225.514,-512.211)">
        <g transform="matrix(276.419,0,0,276.419,752.37,2112.56)">
            <path d="M0.087,0L0.033,-0.8L0.1,-0.8L0.117,-0.499L0.139,-0.06L0.157,-0.06L0.183,-0.499L0.216,-0.795L0.32,-0.795L0.353,-0.499L0.38,-0.06L0.397,-0.06L0.42,-0.499L0.438,-0.8L0.504,-0.8L0.449,0L0.33,0L0.305,-0.262L0.277,-0.737L0.259,-0.737L0.231,-0.262L0.206,0L0.087,0Z" style="fill:white;fill-rule:nonzero;"/>
        </g>
        <g transform="matrix(276.419,0,0,276.419,898.043,2112.56)">
            <path d="M0.053,0L0.053,-0.8L0.119,-0.8L0.119,-0.432L0.247,-0.432L0.247,-0.8L0.313,-0.8L0.313,0L0.247,0L0.247,-0.373L0.119,-0.373L0.119,0L0.053,0Z" style="fill:white;fill-rule:nonzero;"/>
        </g>
        <g transform="matrix(276.419,0,0,276.419,999.212,2112.56)">
            <path d="M0.053,0L0.053,-0.8L0.278,-0.8L0.278,-0.74L0.119,-0.74L0.119,-0.432L0.268,-0.432L0.268,-0.373L0.119,-0.373L0.119,-0.06L0.278,-0.06L0.278,0L0.053,0Z" style="fill:white;fill-rule:nonzero;"/>
        </g>
        <g transform="matrix(276.419,0,0,276.419,1082.41,2112.56)">
            <path d="M0.053,0L0.053,-0.8L0.174,-0.8C0.219,-0.8 0.252,-0.79 0.273,-0.77C0.294,-0.75 0.305,-0.717 0.306,-0.671C0.308,-0.626 0.309,-0.585 0.309,-0.547C0.309,-0.509 0.308,-0.472 0.306,-0.435C0.304,-0.372 0.282,-0.332 0.241,-0.317L0.322,0L0.251,0L0.178,-0.305L0.119,-0.305L0.119,0L0.053,0ZM0.119,-0.365L0.174,-0.365C0.197,-0.365 0.213,-0.37 0.224,-0.381C0.234,-0.392 0.239,-0.409 0.24,-0.432C0.243,-0.513 0.243,-0.593 0.24,-0.674C0.239,-0.697 0.234,-0.713 0.224,-0.724C0.213,-0.735 0.197,-0.74 0.174,-0.74L0.119,-0.74L0.119,-0.365Z" style="fill:white;fill-rule:nonzero;"/>
        </g>
        <g transform="matrix(276.419,0,0,276.419,1176.95,2112.56)">
            <path d="M0.053,0L0.053,-0.8L0.278,-0.8L0.278,-0.74L0.119,-0.74L0.119,-0.432L0.268,-0.432L0.268,-0.373L0.119,-0.373L0.119,-0.06L0.278,-0.06L0.278,0L0.053,0Z" style="fill:white;fill-rule:nonzero;"/>
        </g>
        <g transform="matrix(276.419,0,0,276.419,1319.03,2112.56)">
            <path d="M0.128,0L0.128,-0.74L0.026,-0.74L0.026,-0.8L0.296,-0.8L0.296,-0.74L0.195,-0.74L0.195,0L0.128,0Z" style="fill:white;fill-rule:nonzero;"/>
        </g>
        <g transform="matrix(276.419,0,0,276.419,1401.68,2112.56)">
            <path d="M0.187,0.007C0.141,0.007 0.108,-0.003 0.088,-0.023C0.067,-0.043 0.057,-0.076 0.056,-0.123C0.054,-0.218 0.053,-0.311 0.053,-0.4C0.053,-0.489 0.054,-0.581 0.056,-0.677C0.057,-0.724 0.067,-0.757 0.088,-0.777C0.108,-0.797 0.141,-0.807 0.187,-0.807C0.234,-0.807 0.267,-0.797 0.287,-0.777C0.307,-0.757 0.318,-0.724 0.319,-0.677C0.32,-0.581 0.321,-0.489 0.321,-0.4C0.321,-0.311 0.32,-0.218 0.319,-0.123C0.318,-0.076 0.307,-0.043 0.287,-0.023C0.267,-0.003 0.234,0.007 0.187,0.007ZM0.187,-0.05C0.21,-0.05 0.227,-0.055 0.237,-0.064C0.247,-0.073 0.252,-0.09 0.252,-0.113C0.255,-0.211 0.257,-0.307 0.257,-0.402C0.256,-0.497 0.255,-0.592 0.252,-0.687C0.252,-0.71 0.247,-0.727 0.237,-0.736C0.227,-0.745 0.21,-0.75 0.187,-0.75C0.164,-0.75 0.148,-0.745 0.138,-0.736C0.128,-0.727 0.123,-0.71 0.122,-0.687C0.119,-0.592 0.118,-0.497 0.118,-0.402C0.118,-0.307 0.119,-0.211 0.122,-0.113C0.123,-0.09 0.128,-0.073 0.138,-0.064C0.148,-0.055 0.164,-0.05 0.187,-0.05Z" style="fill:white;fill-rule:nonzero;"/>
        </g>
        <g transform="matrix(276.419,0,0,276.419,1558.41,2112.56)">
            <path d="M0.187,0.007C0.141,0.007 0.108,-0.003 0.088,-0.024C0.068,-0.044 0.057,-0.078 0.055,-0.125C0.054,-0.156 0.054,-0.183 0.054,-0.207C0.054,-0.23 0.055,-0.258 0.057,-0.289L0.12,-0.289C0.119,-0.26 0.118,-0.23 0.118,-0.201C0.118,-0.172 0.119,-0.143 0.12,-0.115C0.121,-0.092 0.127,-0.076 0.137,-0.066C0.147,-0.055 0.164,-0.05 0.187,-0.05C0.209,-0.05 0.225,-0.055 0.235,-0.066C0.244,-0.076 0.25,-0.092 0.251,-0.115C0.252,-0.134 0.253,-0.15 0.253,-0.165C0.253,-0.18 0.253,-0.195 0.253,-0.211C0.252,-0.226 0.252,-0.244 0.251,-0.265C0.25,-0.29 0.247,-0.311 0.241,-0.328C0.234,-0.345 0.222,-0.355 0.203,-0.36L0.15,-0.374C0.111,-0.383 0.086,-0.4 0.074,-0.425C0.062,-0.45 0.055,-0.485 0.054,-0.531C0.053,-0.553 0.053,-0.577 0.054,-0.602C0.054,-0.627 0.054,-0.652 0.055,-0.676C0.056,-0.723 0.066,-0.756 0.086,-0.777C0.106,-0.797 0.14,-0.807 0.187,-0.807C0.231,-0.807 0.263,-0.797 0.283,-0.777C0.302,-0.756 0.313,-0.723 0.315,-0.676L0.315,-0.608C0.315,-0.581 0.315,-0.552 0.314,-0.523L0.25,-0.523C0.251,-0.55 0.251,-0.577 0.251,-0.604C0.251,-0.631 0.251,-0.659 0.25,-0.686C0.249,-0.729 0.227,-0.75 0.186,-0.75C0.163,-0.75 0.147,-0.745 0.138,-0.735C0.128,-0.724 0.122,-0.708 0.121,-0.686C0.12,-0.66 0.119,-0.634 0.119,-0.609C0.119,-0.583 0.12,-0.557 0.121,-0.531C0.122,-0.501 0.125,-0.479 0.132,-0.464C0.138,-0.449 0.151,-0.439 0.171,-0.434L0.22,-0.422C0.259,-0.413 0.285,-0.395 0.298,-0.37C0.31,-0.345 0.317,-0.31 0.318,-0.265C0.319,-0.244 0.319,-0.227 0.319,-0.213C0.319,-0.199 0.319,-0.185 0.319,-0.172C0.318,-0.159 0.318,-0.143 0.318,-0.125C0.316,-0.078 0.305,-0.044 0.285,-0.024C0.265,-0.003 0.232,0.007 0.187,0.007Z" style="fill:white;fill-rule:nonzero;"/>
        </g>
        <g transform="matrix(276.419,0,0,276.419,1659.03,2112.56)">
            <path d="M0.185,0.007C0.139,0.007 0.106,-0.003 0.086,-0.023C0.065,-0.043 0.055,-0.076 0.054,-0.123C0.052,-0.348 0.052,-0.574 0.054,-0.8L0.121,-0.8C0.12,-0.687 0.119,-0.573 0.119,-0.457C0.118,-0.34 0.119,-0.226 0.12,-0.113C0.12,-0.071 0.142,-0.05 0.185,-0.05C0.228,-0.05 0.249,-0.071 0.249,-0.113C0.25,-0.226 0.25,-0.34 0.251,-0.457C0.251,-0.573 0.25,-0.687 0.249,-0.8L0.315,-0.8C0.317,-0.574 0.317,-0.348 0.315,-0.123C0.314,-0.076 0.304,-0.043 0.284,-0.023C0.264,-0.003 0.231,0.007 0.185,0.007Z" style="fill:white;fill-rule:nonzero;"/>
        </g>
        <g transform="matrix(276.419,0,0,276.419,1761.02,2112.56)">
            <path d="M0.053,0L0.053,-0.8L0.172,-0.8C0.217,-0.8 0.251,-0.79 0.272,-0.77C0.293,-0.75 0.303,-0.717 0.304,-0.671L0.304,-0.584C0.304,-0.559 0.304,-0.534 0.303,-0.511C0.302,-0.483 0.296,-0.461 0.287,-0.446C0.278,-0.43 0.263,-0.418 0.243,-0.411L0.243,-0.393C0.282,-0.38 0.303,-0.346 0.304,-0.292C0.305,-0.263 0.305,-0.236 0.305,-0.211C0.305,-0.186 0.305,-0.158 0.304,-0.129C0.303,-0.083 0.292,-0.05 0.272,-0.03C0.251,-0.01 0.218,0 0.172,0L0.053,0ZM0.119,-0.432L0.171,-0.432C0.214,-0.432 0.236,-0.459 0.237,-0.512C0.239,-0.566 0.239,-0.62 0.237,-0.674C0.236,-0.718 0.214,-0.74 0.172,-0.74L0.119,-0.74L0.119,-0.432ZM0.119,-0.06L0.172,-0.06C0.215,-0.06 0.237,-0.083 0.238,-0.13C0.24,-0.183 0.24,-0.237 0.238,-0.29C0.237,-0.32 0.232,-0.341 0.221,-0.354C0.21,-0.367 0.192,-0.373 0.168,-0.373L0.119,-0.373L0.119,-0.06Z" style="fill:white;fill-rule:nonzero;"/>
        </g>
        <g transform="matrix(276.419,0,0,276.419,1855.01,2112.56)">
            <path d="M0.053,0L0.053,-0.8L0.181,-0.8L0.224,-0.472L0.261,-0.063L0.279,-0.063L0.316,-0.472L0.359,-0.8L0.487,-0.8L0.487,0L0.421,0L0.421,-0.237L0.431,-0.74L0.41,-0.74L0.354,-0.23L0.321,-0.003L0.219,-0.003L0.186,-0.23L0.13,-0.74L0.109,-0.74L0.12,-0.232L0.12,0L0.053,0Z" style="fill:white;fill-rule:nonzero;"/>
        </g>
        <g transform="matrix(276.419,0,0,276.419,2004.27,2112.56)">
            <rect x="0.053" y="-0.8" width="0.066" height="0.8" style="fill:white;fill-rule:nonzero;"/>
        </g>
        <g transform="matrix(276.419,0,0,276.419,2049.05,2112.56)">
            <path d="M0.128,0L0.128,-0.74L0.026,-0.74L0.026,-0.8L0.296,-0.8L0.296,-0.74L0.195,-0.74L0.195,0L0.128,0Z" style="fill:white;fill-rule:nonzero;"/>
        </g>
        <g transform="matrix(276.419,0,0,276.419,2194.45,2112.56)">
            <path d="M0.136,0L0.136,-0.209L0.129,-0.246L0.026,-0.8L0.095,-0.8L0.13,-0.574L0.161,-0.345L0.178,-0.345L0.208,-0.574L0.243,-0.8L0.311,-0.8L0.209,-0.246L0.202,-0.209L0.202,0L0.136,0Z" style="fill:white;fill-rule:nonzero;"/>
        </g>
        <g transform="matrix(276.419,0,0,276.419,2281.25,2112.56)">
            <path d="M0.187,0.007C0.141,0.007 0.108,-0.003 0.088,-0.023C0.067,-0.043 0.057,-0.076 0.056,-0.123C0.054,-0.218 0.053,-0.311 0.053,-0.4C0.053,-0.489 0.054,-0.581 0.056,-0.677C0.057,-0.724 0.067,-0.757 0.088,-0.777C0.108,-0.797 0.141,-0.807 0.187,-0.807C0.234,-0.807 0.267,-0.797 0.287,-0.777C0.307,-0.757 0.318,-0.724 0.319,-0.677C0.32,-0.581 0.321,-0.489 0.321,-0.4C0.321,-0.311 0.32,-0.218 0.319,-0.123C0.318,-0.076 0.307,-0.043 0.287,-0.023C0.267,-0.003 0.234,0.007 0.187,0.007ZM0.187,-0.05C0.21,-0.05 0.227,-0.055 0.237,-0.064C0.247,-0.073 0.252,-0.09 0.252,-0.113C0.255,-0.211 0.257,-0.307 0.257,-0.402C0.256,-0.497 0.255,-0.592 0.252,-0.687C0.252,-0.71 0.247,-0.727 0.237,-0.736C0.227,-0.745 0.21,-0.75 0.187,-0.75C0.164,-0.75 0.148,-0.745 0.138,-0.736C0.128,-0.727 0.123,-0.71 0.122,-0.687C0.119,-0.592 0.118,-0.497 0.118,-0.402C0.118,-0.307 0.119,-0.211 0.122,-0.113C0.123,-0.09 0.128,-0.073 0.138,-0.064C0.148,-0.055 0.164,-0.05 0.187,-0.05Z" style="fill:white;fill-rule:nonzero;"/>
        </g>
        <g transform="matrix(276.419,0,0,276.419,2382.69,2112.56)">
            <path d="M0.185,0.007C0.139,0.007 0.106,-0.003 0.086,-0.023C0.065,-0.043 0.055,-0.076 0.054,-0.123C0.052,-0.348 0.052,-0.574 0.054,-0.8L0.121,-0.8C0.12,-0.687 0.119,-0.573 0.119,-0.457C0.118,-0.34 0.119,-0.226 0.12,-0.113C0.12,-0.071 0.142,-0.05 0.185,-0.05C0.228,-0.05 0.249,-0.071 0.249,-0.113C0.25,-0.226 0.25,-0.34 0.251,-0.457C0.251,-0.573 0.25,-0.687 0.249,-0.8L0.315,-0.8C0.317,-0.574 0.317,-0.348 0.315,-0.123C0.314,-0.076 0.304,-0.043 0.284,-0.023C0.264,-0.003 0.231,0.007 0.185,0.007Z" style="fill:white;fill-rule:nonzero;"/>
        </g>
        <g transform="matrix(276.419,0,0,276.419,2484.69,2112.56)">
            <path d="M0.053,0L0.053,-0.8L0.174,-0.8C0.219,-0.8 0.252,-0.79 0.273,-0.77C0.294,-0.75 0.305,-0.717 0.306,-0.671C0.308,-0.626 0.309,-0.585 0.309,-0.547C0.309,-0.509 0.308,-0.472 0.306,-0.435C0.304,-0.372 0.282,-0.332 0.241,-0.317L0.322,0L0.251,0L0.178,-0.305L0.119,-0.305L0.119,0L0.053,0ZM0.119,-0.365L0.174,-0.365C0.197,-0.365 0.213,-0.37 0.224,-0.381C0.234,-0.392 0.239,-0.409 0.24,-0.432C0.243,-0.513 0.243,-0.593 0.24,-0.674C0.239,-0.697 0.234,-0.713 0.224,-0.724C0.213,-0.735 0.197,-0.74 0.174,-0.74L0.119,-0.74L0.119,-0.365Z" style="fill:white;fill-rule:nonzero;"/>
        </g>
        <g transform="matrix(276.419,0,0,276.419,2638.1,2112.56)">
            <path d="M0.053,0L0.053,-0.8L0.174,-0.8C0.219,-0.8 0.252,-0.79 0.273,-0.77C0.294,-0.75 0.305,-0.717 0.306,-0.671C0.308,-0.626 0.309,-0.586 0.309,-0.551C0.309,-0.515 0.308,-0.479 0.306,-0.442C0.305,-0.396 0.294,-0.363 0.273,-0.343C0.252,-0.323 0.219,-0.313 0.174,-0.313L0.119,-0.313L0.119,0L0.053,0ZM0.119,-0.372L0.174,-0.372C0.197,-0.372 0.213,-0.378 0.224,-0.389C0.234,-0.4 0.239,-0.416 0.24,-0.439C0.243,-0.517 0.243,-0.595 0.24,-0.674C0.239,-0.697 0.234,-0.713 0.224,-0.724C0.213,-0.735 0.197,-0.74 0.174,-0.74L0.119,-0.74L0.119,-0.372Z" style="fill:white;fill-rule:nonzero;"/>
        </g>
        <g transform="matrix(276.419,0,0,276.419,2722.13,2112.56)">
            <path d="M0.026,0L0.112,-0.8L0.236,-0.8L0.321,0L0.253,0L0.232,-0.232L0.115,-0.232L0.094,0L0.026,0ZM0.121,-0.292L0.226,-0.292L0.21,-0.467L0.188,-0.74L0.16,-0.74L0.137,-0.466L0.121,-0.292Z" style="fill:white;fill-rule:nonzero;"/>
        </g>
        <g transform="matrix(276.419,0,0,276.419,2814.46,2112.56)">
            <path d="M0.053,0L0.053,-0.8L0.174,-0.8C0.219,-0.8 0.252,-0.79 0.273,-0.77C0.294,-0.75 0.305,-0.717 0.306,-0.671C0.308,-0.626 0.309,-0.586 0.309,-0.551C0.309,-0.515 0.308,-0.479 0.306,-0.442C0.305,-0.396 0.294,-0.363 0.273,-0.343C0.252,-0.323 0.219,-0.313 0.174,-0.313L0.119,-0.313L0.119,0L0.053,0ZM0.119,-0.372L0.174,-0.372C0.197,-0.372 0.213,-0.378 0.224,-0.389C0.234,-0.4 0.239,-0.416 0.24,-0.439C0.243,-0.517 0.243,-0.595 0.24,-0.674C0.239,-0.697 0.234,-0.713 0.224,-0.724C0.213,-0.735 0.197,-0.74 0.174,-0.74L0.119,-0.74L0.119,-0.372Z" style="fill:white;fill-rule:nonzero;"/>
        </g>
        <g transform="matrix(276.419,0,0,276.419,2907.06,2112.56)">
            <path d="M0.053,0L0.053,-0.8L0.278,-0.8L0.278,-0.74L0.119,-0.74L0.119,-0.432L0.268,-0.432L0.268,-0.373L0.119,-0.373L0.119,-0.06L0.278,-0.06L0.278,0L0.053,0Z" style="fill:white;fill-rule:nonzero;"/>
        </g>
        <g transform="matrix(276.419,0,0,276.419,2990.26,2112.56)">
            <path d="M0.053,0L0.053,-0.8L0.174,-0.8C0.219,-0.8 0.252,-0.79 0.273,-0.77C0.294,-0.75 0.305,-0.717 0.306,-0.671C0.308,-0.626 0.309,-0.585 0.309,-0.547C0.309,-0.509 0.308,-0.472 0.306,-0.435C0.304,-0.372 0.282,-0.332 0.241,-0.317L0.322,0L0.251,0L0.178,-0.305L0.119,-0.305L0.119,0L0.053,0ZM0.119,-0.365L0.174,-0.365C0.197,-0.365 0.213,-0.37 0.224,-0.381C0.234,-0.392 0.239,-0.409 0.24,-0.432C0.243,-0.513 0.243,-0.593 0.24,-0.674C0.239,-0.697 0.234,-0.713 0.224,-0.724C0.213,-0.735 0.197,-0.74 0.174,-0.74L0.119,-0.74L0.119,-0.365Z" style="fill:white;fill-rule:nonzero;"/>
        </g>
    </g>
</svg>
